<svg xmlns="http://www.w3.org/2000/svg" width="20" height="20" viewBox="0 0 20 20">
    <path fill="#4DD0ED" fill-rule="nonzero" d="M12.5 20h3.75c.345 0 .625-.28.625-.625v-8.75h2.5a.625.625 0 0 0 .442-1.067L10.442.183a.625.625 0 0 0-.884 0L.183 9.558a.625.625 0 0 0 .442 1.067h2.5v8.75c0 .345.28.625.625.625H7.5c.345 0 .625-.28.625-.625V15h3.75v4.375c0 .345.28.625.625.625zm-5-6.25a.625.625 0 0 0-.625.625v4.375h-2.5V10a.625.625 0 0 0-.625-.625H2.134L10 1.509l7.866 7.866H16.25a.625.625 0 0 0-.625.625v8.75h-2.5v-4.375a.625.625 0 0 0-.625-.625h-5z"/>
</svg>
